HIERARCHY
ROOT hip
{
  OFFSET 0 0 0
  CHANNELS 6 Xposition Yposition Zposition Zrotation Yrotation Xrotation
  JOINT abdomen
  {
    OFFSET 0 20.6881 -0.73152
    CHANNELS 3 Zrotation Xrotation Yrotation
    JOINT chest
    {
      OFFSET 0 11.7043 -0.48768
      CHANNELS 3 Zrotation Xrotation Yrotation
      JOINT neck
      {
        OFFSET 0 22.1894 -2.19456
        CHANNELS 3 Zrotation Xrotation Yrotation
        JOINT head
        {
          OFFSET -0.24384 7.07133 1.2192
          CHANNELS 3 Zrotation Xrotation Yrotation
          JOINT leftEye
          {
            OFFSET 4.14528 8.04674 8.04672
            CHANNELS 3 Zrotation Xrotation Yrotation
            End Site
            {
              OFFSET 1 0 0
            }
          }
          JOINT rightEye
          {
            OFFSET -3.6576 8.04674 8.04672
            CHANNELS 3 Zrotation Xrotation Yrotation
            End Site
            {
              OFFSET 1 0 0
            }
          }
        }
      }
      JOINT rCollar
      {
        OFFSET -2.68224 19.2634 -4.8768
        CHANNELS 3 Zrotation Xrotation Yrotation
        JOINT rShldr
        {
          OFFSET -8.77824 -1.95073 1.46304
          CHANNELS 3 Zrotation Xrotation Yrotation
          JOINT rForeArm
          {
            OFFSET -28.1742 -1.7115 0.48768
            CHANNELS 3 Zrotation Xrotation Yrotation
            JOINT rHand
            {
              OFFSET -22.5879 0.773209 7.07136
              CHANNELS 3 Zrotation Xrotation Yrotation
              JOINT rThumb1
              {
                OFFSET -1.2192 -0.487915 3.41376
                CHANNELS 3 Zrotation Xrotation Yrotation
                JOINT rThumb2
                {
                  OFFSET -3.37035 -0.52449 3.41376
                  CHANNELS 3 Zrotation Xrotation Yrotation
                  End Site
                  {
                    OFFSET -1.78271 -1.18214 1.43049
                  }
                }
              }
              JOINT rIndex1
              {
                OFFSET -7.75947 0.938293 5.60832
                CHANNELS 3 Zrotation Xrotation Yrotation
                JOINT rIndex2
                {
                  OFFSET -2.54057 -0.884171 1.56538
                  CHANNELS 3 Zrotation Xrotation Yrotation
                  End Site
                  {
                    OFFSET -1.62519 -0.234802 1.16502
                  }
                }
              }
              JOINT rMid1
              {
                OFFSET -8.24714 1.18213 3.41376
                CHANNELS 3 Zrotation Xrotation Yrotation
                JOINT rMid2
                {
                  OFFSET -3.10165 -0.590103 1.0647
                  CHANNELS 3 Zrotation Xrotation Yrotation
                  End Site
                  {
                    OFFSET -2.48547 -0.328903 0.83742
                  }
                }
              }
              JOINT rRing1
              {
                OFFSET -8.82822 0.546677 1.51678
                CHANNELS 3 Zrotation Xrotation Yrotation
                JOINT rRing2
                {
                  OFFSET -2.60934 -0.819778 -0.0198488
                  CHANNELS 3 Zrotation Xrotation Yrotation
                  End Site
                  {
                    OFFSET -2.33842 -0.294052 0.168128
                  }
                }
              }
              JOINT rPinky1
              {
                OFFSET -8.27202 -0.0477905 -0.4584
                CHANNELS 3 Zrotation Xrotation Yrotation
                JOINT rPinky2
                {
                  OFFSET -1.82734 -0.647385 -0.700984
                  CHANNELS 3 Zrotation Xrotation Yrotation
                  End Site
                  {
                    OFFSET -1.69225 -0.51767 -0.607171
                  }
                }
              }
            }
          }
        }
      }
      JOINT lCollar
      {
        OFFSET 2.68224 19.2634 -4.8768
        CHANNELS 3 Zrotation Xrotation Yrotation
        JOINT lShldr
        {
          OFFSET 8.77824 -1.95073 1.46304
          CHANNELS 3 Zrotation Xrotation Yrotation
          JOINT lForeArm
          {
            OFFSET 28.1742 -1.7115 0.48768
            CHANNELS 3 Zrotation Xrotation Yrotation
            JOINT lHand
            {
              OFFSET 22.5879 0.773209 7.07136
              CHANNELS 3 Zrotation Xrotation Yrotation
              JOINT lThumb1
              {
                OFFSET 1.2192 -0.487915 3.41376
                CHANNELS 3 Zrotation Xrotation Yrotation
                JOINT lThumb2
                {
                  OFFSET 3.37035 -0.52449 3.41376
                  CHANNELS 3 Zrotation Xrotation Yrotation
                  End Site
                  {
                    OFFSET 1.78271 -1.18214 1.43049
                  }
                }
              }
              JOINT lIndex1
              {
                OFFSET 7.75947 0.938293 5.60832
                CHANNELS 3 Zrotation Xrotation Yrotation
                JOINT lIndex2
                {
                  OFFSET 2.54057 -0.884171 1.56538
                  CHANNELS 3 Zrotation Xrotation Yrotation
                  End Site
                  {
                    OFFSET 1.62519 -0.234802 1.16502
                  }
                }
              }
              JOINT lMid1
              {
                OFFSET 8.24714 1.18213 3.41376
                CHANNELS 3 Zrotation Xrotation Yrotation
                JOINT lMid2
                {
                  OFFSET 3.10165 -0.590103 1.0647
                  CHANNELS 3 Zrotation Xrotation Yrotation
                  End Site
                  {
                    OFFSET 2.48547 -0.328903 0.83742
                  }
                }
              }
              JOINT lRing1
              {
                OFFSET 8.82822 0.546677 1.51678
                CHANNELS 3 Zrotation Xrotation Yrotation
                JOINT lRing2
                {
                  OFFSET 2.60934 -0.819778 -0.0198488
                  CHANNELS 3 Zrotation Xrotation Yrotation
                  End Site
                  {
                    OFFSET 2.33842 -0.294052 0.168128
                  }
                }
              }
              JOINT lPinky1
              {
                OFFSET 8.27202 -0.0477905 -0.4584
                CHANNELS 3 Zrotation Xrotation Yrotation
                JOINT lPinky2
                {
                  OFFSET 1.82734 -0.647385 -0.700984
                  CHANNELS 3 Zrotation Xrotation Yrotation
                  End Site
                  {
                    OFFSET 1.69225 -0.51767 -0.607171
                  }
                }
              }
            }
          }
        }
      }
    }
  }
  JOINT rButtock
  {
    OFFSET -8.77824 4.35084 1.2192
    CHANNELS 3 Zrotation Xrotation Yrotation
    JOINT rThigh
    {
      OFFSET 0 -1.70687 -2.19456
      CHANNELS 3 Zrotation Xrotation Yrotation
      JOINT rShin
      {
        OFFSET 0 -36.8199 0.73152
        CHANNELS 3 Zrotation Xrotation Yrotation
        JOINT rFoot
        {
          OFFSET 0.73152 -45.1104 -5.12064
          CHANNELS 3 Zrotation Xrotation Yrotation
          End Site
          {
            OFFSET -1.1221 -3.69964 12.103
          }
        }
      }
    }
  }
  JOINT lButtock
  {
    OFFSET 8.77824 4.35084 1.2192
    CHANNELS 3 Zrotation Xrotation Yrotation
    JOINT lThigh
    {
      OFFSET 0 -1.70687 -2.19456
      CHANNELS 3 Zrotation Xrotation Yrotation
      JOINT lShin
      {
        OFFSET 0 -36.8199 0.73152
        CHANNELS 3 Zrotation Xrotation Yrotation
        JOINT lFoot
        {
          OFFSET -0.73152 -45.1104 -5.12064
          CHANNELS 3 Zrotation Xrotation Yrotation
          End Site
          {
            OFFSET 1.1221 -3.69964 12.103
          }
        }
      }
    }
  }
}
MOTION
Frames:	9
Frame Time:	0.00833333
43.8357 85.1388 193.463 0.0 0.0 0.0 0.41059 -0.00336424 0.0117806 0.113459 -0.00539521 0.0196593 2.56476e-15 -1.59028e-15 3.72721e-17 7.72775e-15 3.18055e-15 8.38623e-17 -0.0 0.0 0.0 -0.0 0.0 0.0 1.34056e-15 7.95915e-18 1.98785e-16 2.86006e-14 2.36057e-16 9.93923e-16 4.6451e-13 -1.29806e-13 -1.27222e-14 5.26955e-12 1.79652e-13 6.67917e-14 1.24355e-11 1.10082e-13 1.55847e-13 2.14632e-11 1.90833e-13 2.62396e-13 1.24399e-11 1.1291e-13 1.43125e-13 7.73091 5.47488 0.417314 1.2435e-11 1.10127e-13 1.55847e-13 2.90554 0.965183 0.102902 1.24434e-11 1.10524e-13 1.52667e-13 10.2786 0.731801 0.0259123 1.24324e-11 1.11319e-13 1.62208e-13 2.22167 -0.733487 -0.20892 1.24373e-15 7.95915e-18 -1.98785e-16 2.46829e-14 -1.49089e-16 -1.98785e-16 4.5641e-13 1.42727e-13 6.36111e-15 5.27297e-12 -1.15121e-13 7.31528e-14 1.24304e-11 6.43159e-14 1.59028e-13 2.14743e-11 1.17681e-13 2.81479e-13 1.2424e-11 6.48038e-14 1.7175e-13 -7.73091 5.47488 -0.417314 1.24306e-11 6.41081e-14 1.55847e-13 -2.90554 0.965183 -0.102902 1.2431e-11 6.45056e-14 1.59823e-13 -10.2786 0.731801 -0.0259123 1.24378e-11 6.71892e-14 1.49486e-13 -2.22167 -0.733487 0.20892 -2.03217e-16 0.0 -3.88251e-19 0.770603 -4.17183 -0.0656815 -0.00265486 2.00555 -0.0182702 -0.461828 2.16687 0.0961007 2.03217e-16 0.0 3.88251e-19 -0.143236 -2.55995 0.0260685 0.00716321 -0.914091 0.0621719 0.453775 3.47457 -0.121225
43.9553 83.308 187.053 177.438 -1.671 -156.66 -1.55455 -8.19323 -0.595581 1.05113 3.88644 -0.246721 -0.190154 2.7015 -0.505748 0.914955 -6.00439 -0.840496 -0.0 0.0 0.0 -0.0 0.0 0.0 1.39015e-14 -5.97648e-15 -5.72632e-15 22.8668 0.528047 -1.20591 -4.04474 -1.8043 6.35337 0.00372759 1.35454 0.190176 9.99128e-11 -1.57274e-10 -3.56758e-11 1.72852e-10 -2.72176e-10 -6.24389e-11 9.99192e-11 -1.57258e-10 -3.56838e-11 7.73091 5.47488 0.417314 9.99121e-11 -1.57274e-10 -3.56747e-11 2.90554 0.965183 0.102902 9.99178e-11 -1.57274e-10 -3.5677e-11 10.2786 0.731801 0.0259123 9.99087e-11 -1.57273e-10 -3.56664e-11 2.22167 -0.733487 -0.20892 1.38104e-14 -5.9765e-15 -6.1002e-15 -21.5434 0.818083 0.290595 1.77343 -0.59193 -2.95856 -0.0824415 6.38202 -0.877023 1.00144e-10 6.4964e-11 4.37606e-11 1.73879e-10 1.12552e-10 7.43979e-11 1.00139e-10 6.4965e-11 4.37715e-11 -7.73091 5.47488 -0.417314 1.00145e-10 6.49645e-11 4.37583e-11 -2.90554 0.965183 -0.102902 1.00143e-10 6.49651e-11 4.37608e-11 -10.2786 0.731801 -0.0259123 1.0015e-10 6.49675e-11 4.37526e-11 -2.22167 -0.733487 0.20892 -2.03217e-16 0.0 -3.88251e-19 0.604163 -10.4032 1.57031 0.0029462 4.42355 0.0494195 -0.666273 -2.89475 -2.1856 2.03217e-16 0.0 3.88251e-19 -0.45987 -9.59802 -2.6276 0.0066922 2.79212 -0.00155827 0.493587 0.86286 0.674083
43.95 83.3163 187.011 177.422 -1.8249 -156.853 -3.83021 -16.8502 -1.2794 2.08168 7.99956 -0.53208 -0.331034 5.55977 -1.04473 1.677 -12.3562 -1.76366 -0.0 0.0 0.0 -0.0 0.0 0.0 2.62495e-14 -1.11783e-14 -1.33403e-14 47.0647 1.0937 -2.48179 -7.89144 -3.63984 13.0947 -0.00211648 2.78386 0.391212 2.14383e-10 -3.4752e-10 -7.40835e-11 3.70917e-10 -6.01427e-10 -1.29772e-10 2.14392e-10 -3.47491e-10 -7.40863e-11 7.73091 5.47488 0.417314 2.14382e-10 -3.47521e-10 -7.40811e-11 2.90554 0.965183 0.102902 2.14385e-10 -3.47521e-10 -7.40823e-11 10.2786 0.731801 0.0259123 2.14378e-10 -3.47519e-10 -7.40705e-11 2.22167 -0.733487 -0.20892 2.6163e-14 -1.11784e-14 -1.36913e-14 -44.3246 1.65854 0.599871 3.57748 -1.21051 -6.07995 0.0483411 13.155 -1.8455 2.12935e-10 1.43768e-10 1.00012e-10 3.69813e-10 2.49058e-10 1.69955e-10 2.1293e-10 1.4377e-10 1.00021e-10 -7.73091 5.47488 -0.417314 2.12937e-10 1.4377e-10 1.00011e-10 -2.90554 0.965183 -0.102902 2.12931e-10 1.43771e-10 1.00012e-10 -10.2786 0.731801 -0.0259123 2.1294e-10 1.43773e-10 1.00006e-10 -2.22167 -0.733487 0.20892 -2.03217e-16 0.0 -3.88251e-19 0.82936 -16.9725 3.39327 0.00250499 6.97832 0.121491 -1.32264 -8.22285 -4.6325 2.03217e-16 0.0 3.88251e-19 -1.53407 -16.9834 -5.59923 0.0152391 6.71011 -0.0693799 0.614633 -1.89765 1.51621
43.9356 83.3199 186.981 177.361 -1.8837 -156.948 -6.04949 -24.5615 -1.97042 3.03695 11.6691 -0.794195 -0.426177 8.10195 -1.53084 2.19344 -17.9973 -2.63675 -0.0 0.0 0.0 -0.0 0.0 0.0 3.90235e-14 -1.79454e-14 -1.75765e-14 68.667 1.58134 -3.61895 -10.9543 -5.14721 19.1307 -0.0158506 4.06345 0.571807 2.74867e-10 -4.72042e-10 -1.07339e-10 4.7563e-10 -8.16908e-10 -1.87842e-10 2.74878e-10 -4.72001e-10 -1.07338e-10 7.73091 5.47488 0.417314 2.74866e-10 -4.72043e-10 -1.07336e-10 2.90554 0.965183 0.102902 2.74867e-10 -4.72043e-10 -1.07336e-10 10.2786 0.731801 0.0259123 2.74861e-10 -4.72041e-10 -1.07324e-10 2.22167 -0.733487 -0.20892 3.89439e-14 -1.79454e-14 -1.7903e-14 -64.6551 2.454 0.872498 5.13764 -1.75686 -8.87941 0.367711 19.1276 -2.76767 2.75572e-10 1.94763e-10 1.30964e-10 4.78688e-10 3.37421e-10 2.22631e-10 2.75568e-10 1.94765e-10 1.30971e-10 -7.73091 5.47488 -0.417314 2.75575e-10 1.94765e-10 1.30963e-10 -2.90554 0.965183 -0.102902 2.75566e-10 1.94766e-10 1.30963e-10 -10.2786 0.731801 -0.0259123 2.75575e-10 1.94768e-10 1.30959e-10 -2.22167 -0.733487 0.20892 -2.03217e-16 0.0 -3.88251e-19 1.41809 -22.7938 5.16914 -0.00319026 9.25952 0.186769 -2.30635 -12.9327 -6.91678 2.03217e-16 0.0 3.88251e-19 -3.19617 -23.4699 -8.53521 0.0307269 10.2045 -0.131071 0.790948 -4.35699 2.27059
43.9397 83.323 186.947 177.431 -1.9576 -157.052 -7.71594 -29.9194 -2.52842 3.72557 14.2308 -0.984179 -0.509788 9.85634 -1.87174 2.49817 -21.8771 -3.27338 -0.0 0.0 0.0 -0.0 0.0 0.0 5.28621e-14 -2.86252e-14 -1.33683e-14 83.7314 1.87668 -4.40809 -12.8848 -6.08882 23.336 -0.0303767 4.96884 0.700099 2.00385e-10 -4.32252e-10 -1.27715e-10 3.46966e-10 -7.47965e-10 -2.22753e-10 2.00396e-10 -4.32208e-10 -1.27712e-10 7.73091 5.47488 0.417314 2.00384e-10 -4.32254e-10 -1.27712e-10 2.90554 0.965183 0.102902 2.00383e-10 -4.32254e-10 -1.27712e-10 10.2786 0.731801 0.0259123 2.00378e-10 -4.32252e-10 -1.27699e-10 2.22167 -0.733487 -0.20892 5.27955e-14 -2.86254e-14 -1.36664e-14 -78.8421 3.13719 1.05291 6.21494 -2.14033 -10.8706 0.703654 23.1172 -3.43956 2.12824e-10 1.76235e-10 9.8664e-11 3.69915e-10 3.05425e-10 1.68104e-10 2.12821e-10 1.76237e-10 9.86703e-11 -7.73091 5.47488 -0.417314 2.12828e-10 1.76237e-10 9.8664e-11 -2.90554 0.965183 -0.102902 2.12817e-10 1.76238e-10 9.86632e-11 -10.2786 0.731801 -0.0259123 2.12827e-10 1.76239e-10 9.86608e-11 -2.22167 -0.733487 0.20892 -2.03217e-16 0.0 -3.88251e-19 2.08128 -26.8114 6.53458 -0.00976525 10.8569 0.233318 -3.23793 -16.1798 -8.62471 2.03217e-16 0.0 3.88251e-19 -4.79736 -27.8983 -10.8328 0.0458618 12.6399 -0.175197 0.951311 -6.06745 2.79652
43.9505 83.3245 186.924 177.53 -2.0438 -157.099 -8.37995 -31.982 -2.77586 4.00292 15.2426 -1.06262 -0.636767 10.5097 -1.99494 2.72375 -23.2953 -3.48043 -0.0 0.0 0.0 -0.0 0.0 0.0 7.25524e-14 -5.51073e-14 6.1996e-15 89.6208 1.90852 -4.70807 -13.5765 -6.41333 24.9387 -0.0374882 5.34562 0.753632 -1.16263e-10 -1.37086e-10 -8.34243e-11 -2.00153e-10 -2.36962e-10 -1.44342e-10 -1.16252e-10 -1.37047e-10 -8.34233e-11 7.73091 5.47488 0.417314 -1.16264e-10 -1.37088e-10 -8.34231e-11 2.90554 0.965183 0.102902 -1.16264e-10 -1.37087e-10 -8.34234e-11 10.2786 0.731801 0.0259123 -1.16269e-10 -1.37086e-10 -8.3412e-11 2.22167 -0.733487 -0.20892 7.25116e-14 -5.51078e-14 5.93986e-15 -84.4212 3.67791 1.1063 6.67452 -2.30921 -11.7323 0.836606 24.3297 -3.65765 -3.20359e-11 2.94582e-11 -1.01953e-10 -5.61381e-11 5.12628e-11 -1.74016e-10 -3.20385e-11 2.94592e-11 -1.01947e-10 -7.73091 5.47488 -0.417314 -3.20321e-11 2.94594e-11 -1.01954e-10 -2.90554 0.965183 -0.102902 -3.20452e-11 2.94603e-11 -1.01953e-10 -10.2786 0.731801 -0.0259123 -3.20335e-11 2.9462e-11 -1.01955e-10 -2.22167 -0.733487 0.20892 -2.03217e-16 0.0 -3.88251e-19 2.43119 -28.3441 7.12608 -0.0119125 11.4978 0.252606 -3.69258 -17.4391 -9.41035 2.03217e-16 0.0 3.88251e-19 -5.52354 -29.5816 -11.8373 0.0522486 13.5943 -0.192982 1.02156 -6.73197 3.00033
43.9484 83.3244 186.908 177.564 -2.1055 -157.115 -8.26535 -31.694 -2.76049 3.97765 15.1475 -1.05834 -0.804733 10.3772 -1.96029 2.93846 -22.9585 -3.35739 -0.0 0.0 0.0 -0.0 0.0 0.0 9.62149e-14 -9.23851e-14 3.65702e-14 88.9527 1.75243 -4.65855 -13.4575 -6.34576 24.6727 -0.0372452 5.34508 0.753541 -6.03352e-10 3.39287e-10 4.83644e-12 -1.0418e-09 5.87709e-10 1.11598e-11 -6.03342e-10 3.39311e-10 4.83245e-12 7.73091 5.47488 0.417314 -6.03352e-10 3.39285e-10 4.83444e-12 2.90554 0.965183 0.102902 -6.03351e-10 3.39285e-10 4.83336e-12 10.2786 0.731801 0.0259123 -6.03358e-10 3.39287e-10 4.8424e-12 2.22167 -0.733487 -0.20892 9.62088e-14 -9.23861e-14 3.63559e-14 -83.849 4.11623 1.06866 6.70637 -2.32857 -11.7862 0.775223 23.5626 -3.52542 -4.06664e-10 -2.07451e-10 -4.18999e-10 -7.0822e-10 -3.59035e-10 -7.15011e-10 -4.06666e-10 -2.07452e-10 -4.18992e-10 -7.73091 5.47488 -0.417314 -4.06661e-10 -2.07452e-10 -4.19002e-10 -2.90554 0.965183 -0.102902 -4.06675e-10 -2.07451e-10 -4.18997e-10 -10.2786 0.731801 -0.0259123 -4.06661e-10 -2.07449e-10 -4.18999e-10 -2.22167 -0.733487 0.20892 -2.03217e-16 0.0 -3.88251e-19 2.44611 -28.1174 7.1003 -0.009561 11.4556 0.252083 -3.70242 -17.2987 -9.49537 2.03217e-16 0.0 3.88251e-19 -5.41589 -29.3498 -11.7928 0.0504416 13.4907 -0.191384 1.01143 -6.65042 2.97092
43.9373 83.3219 186.899 177.56 -2.2243 -157.09 -7.84631 -30.481 -2.64136 3.83374 14.6089 -1.02156 -0.967697 9.92992 -1.87092 3.11214 -21.9312 -3.12873 -0.0 0.0 0.0 -0.0 0.0 0.0 1.14488e-13 -1.17462e-13 6.5602e-14 85.6642 1.515 -4.47105 -13.011 -6.11918 23.6576 -0.0340694 5.20143 0.733096 -1.07348e-09 8.47594e-10 3.60688e-11 -1.8545e-09 1.46766e-09 6.80594e-11 -1.07347e-09 8.47603e-10 3.60595e-11 7.73091 5.47488 0.417314 -1.07348e-09 8.47592e-10 3.60638e-11 2.90554 0.965183 0.102902 -1.07347e-09 8.47593e-10 3.60619e-11 10.2786 0.731801 0.0259123 -1.07348e-09 8.47594e-10 3.60686e-11 2.22167 -0.733487 -0.20892 1.14514e-13 -1.17464e-13 6.54285e-14 -80.8142 4.49036 0.990567 6.56417 -2.28663 -11.5099 0.648354 22.0263 -3.26297 -8.22679e-10 -4.30951e-10 -6.54991e-10 -1.4306e-09 -7.45923e-10 -1.11554e-09 -8.22681e-10 -4.30953e-10 -6.54982e-10 -7.73091 5.47488 -0.417314 -8.22677e-10 -4.30953e-10 -6.54994e-10 -2.90554 0.965183 -0.102902 -8.22691e-10 -4.30953e-10 -6.54986e-10 -10.2786 0.731801 -0.0259123 -8.22676e-10 -4.30951e-10 -6.54988e-10 -2.22167 -0.733487 0.20892 -2.03217e-16 0.0 -3.88251e-19 2.31638 -27.2 6.81156 -0.00554176 11.1385 0.243464 -3.52097 -16.6032 -9.27362 2.03217e-16 0.0 3.88251e-19 -4.97608 -28.3629 -11.32 0.0455704 12.9615 -0.181926 0.9675 -6.27161 2.83779
43.9225 83.3223 186.869 177.545 -2.3452 -157.161 -7.60044 -29.7681 -2.57947 3.75579 14.2901 -1.00273 -1.0803 9.63917 -1.82984 3.22298 -21.2789 -3.01531 -0.0 0.0 0.0 -0.0 0.0 0.0 1.18012e-13 -1.07343e-13 8.11538e-14 83.6903 1.30299 -4.35694 -12.7204 -5.96677 23.013 -0.0326252 5.14886 0.725599 -1.33924e-09 1.23857e-09 -9.07253e-11 -2.31476e-09 2.14452e-09 -1.49337e-10 -1.33923e-09 1.23856e-09 -9.0738e-11 7.73091 5.47488 0.417314 -1.33924e-09 1.23856e-09 -9.07317e-11 2.90554 0.965183 0.102902 -1.33923e-09 1.23857e-09 -9.07341e-11 10.2786 0.731801 0.0259123 -1.33924e-09 1.23857e-09 -9.07285e-11 2.22167 -0.733487 -0.20892 1.18053e-13 -1.07344e-13 8.10047e-14 -79.0069 4.8385 0.922684 6.49902 -2.27087 -11.3806 0.569371 20.932 -3.08155 -1.1917e-09 -5.37498e-10 -6.12444e-10 -2.06754e-09 -9.29857e-10 -1.03626e-09 -1.1917e-09 -5.37501e-10 -6.12435e-10 -7.73091 5.47488 -0.417314 -1.1917e-09 -5.37501e-10 -6.12448e-10 -2.90554 0.965183 -0.102902 -1.19172e-09 -5.37501e-10 -6.12439e-10 -10.2786 0.731801 -0.0259123 -1.1917e-09 -5.37499e-10 -6.12441e-10 -2.22167 -0.733487 0.20892 -2.03217e-16 0.0 -3.88251e-19 2.23948 -26.6596 6.61764 -0.00281069 10.9549 0.238497 -3.41651 -16.1935 -9.14376 2.03217e-16 0.0 3.88251e-19 -4.71923 -27.7774 -11.0464 0.0428735 12.6393 -0.17616 0.937 -6.04435 2.73052
